<svg width="35" height="35" viewBox="0 0 22 22" fill="none" xmlns="http://www.w3.org/2000/svg">
  <path d="M13.3244 15.5994V10.4481C13.3244 9.1549 12.2492 8.10656 10.9228 8.10656C9.59646 8.10656 8.52125 9.1549 8.52125 10.4481V15.5994H6.6V10.4481C6.6 8.12035 8.53539 6.23335 10.9228 6.23335C13.3102 6.23335 15.2456 8.12035 15.2456 10.4481V15.5994H13.3244Z" fill="#086dd6"></path>
  <path fill-rule="evenodd" clip-rule="evenodd" d="M4.4 0C1.96995 0 0 1.96995 0 4.4V17.6C0 20.0301 1.96995 22 4.4 22H17.6C20.0301 22 22 20.0301 22 17.6V4.4C22 1.96995 20.0301 0 17.6 0H4.4ZM17.6 1.925H4.4C3.03309 1.925 1.925 3.0331 1.925 4.4V17.6C1.925 18.9669 3.03309 20.075 4.4 20.075H17.6C18.9669 20.075 20.075 18.9669 20.075 17.6V4.4C20.075 3.0331 18.9669 1.925 17.6 1.925Z" fill="#086dd6"></path>
</svg>